<svg xmlns="http://www.w3.org/2000/svg" width="600" height="600" fill="none" viewBox="0 0 600 600"><g filter="url(#filter0_f_7857_37588)"><circle cx="273.841" cy="274.158" r="61.158" fill="#6188E7"/></g><g filter="url(#filter1_f_7857_37588)"><path fill="#FF7AC3" d="M382.047 265.418C363.454 204.777 289.673 312.034 288.684 316.775C274.706 304.002 242.081 277.349 223.409 272.924C200.068 267.394 207.585 355.885 228.156 370.7C248.728 385.514 318.552 379.194 354.157 385.712C389.762 392.23 400.641 326.059 382.047 265.418Z"/><path stroke="#FF7AC3" stroke-width=".533" d="M382.047 265.418C363.454 204.777 289.673 312.034 288.684 316.775C274.706 304.002 242.081 277.349 223.409 272.924C200.068 267.394 207.585 355.885 228.156 370.7C248.728 385.514 318.552 379.194 354.157 385.712C389.762 392.23 400.641 326.059 382.047 265.418Z"/></g><defs><filter id="filter0_f_7857_37588" width="487.938" height="487.938" x="29.872" y="30.189" color-interpolation-filters="sRGB" filterUnits="userSpaceOnUse"><feFlood flood-opacity="0" result="BackgroundImageFix"/><feBlend in="SourceGraphic" in2="BackgroundImageFix" mode="normal" result="shape"/><feGaussianBlur result="effect1_foregroundBlur_7857_37588" stdDeviation="91.406"/></filter><filter id="filter1_f_7857_37588" width="488.933" height="446.196" x="55.533" y="93.428" color-interpolation-filters="sRGB" filterUnits="userSpaceOnUse"><feFlood flood-opacity="0" result="BackgroundImageFix"/><feBlend in="SourceGraphic" in2="BackgroundImageFix" mode="normal" result="shape"/><feGaussianBlur result="effect1_foregroundBlur_7857_37588" stdDeviation="76.6"/></filter></defs></svg>