<svg xmlns="http://www.w3.org/2000/svg" width="134" height="134" fill="none" viewBox="0 0 134 134"><mask id="mask0_699_5101" style="mask-type:alpha" width="134" height="134" x="0" y="0" maskUnits="userSpaceOnUse"><rect width="134" height="134" fill="#C4C4C4"/></mask><g mask="url(#mask0_699_5101)"><path fill="url(#paint0_linear_699_5101)" d="M87.9615 64.3201L87.9456 47.7455L27.1191 16.2236V64.3041L66.0589 85.106L80.2884 78.8367L37.4403 56.1046L37.4722 37.887L87.9615 64.3201Z"/><path fill="url(#paint1_linear_699_5101)" d="M50.7607 44.8421V50.5052L37.3926 56.2321L37.4883 37.6636L50.7607 44.8421Z"/><path fill="url(#paint2_linear_699_5101)" d="M50.8095 91.822L80.2895 78.8368L37.4414 56.2163L50.6819 50.5054L105.765 79.2835L50.9212 103.212L50.8095 91.822Z"/><path fill="url(#paint3_linear_699_5101)" d="M37.4886 87.9773L50.6493 82.2982L50.9365 103.196L105.765 79.2832V97.118L37.377 127.077L37.4886 87.9773Z"/><path fill="url(#paint4_linear_699_5101)" d="M27.1191 82.5857L37.4403 87.9776L37.3765 127.013L27.1191 121.86V82.5857Z"/><path fill="url(#paint5_linear_699_5101)" d="M40.1522 76.7791L50.6489 82.2986L37.4403 87.9776L27.1191 82.5857L40.1522 76.7791Z"/><path fill="url(#paint6_linear_699_5101)" d="M105.765 56.5993L105.702 39.9131L87.9785 47.7457V64.3362L105.765 56.5993Z"/><path fill="url(#paint7_linear_699_5101)" d="M27.1191 16.2237L45.0337 7.97632L105.732 39.8811L87.9775 47.7456L27.1191 16.2237Z"/></g><defs><linearGradient id="paint0_linear_699_5101" x1="11.901" x2="119.372" y1="50.665" y2="50.665" gradientUnits="userSpaceOnUse"><stop stop-color="#FFD4B2"/><stop offset=".36" stop-color="#9ACEB7"/><stop offset=".67" stop-color="#47C8BB"/><stop offset=".89" stop-color="#14C5BE"/><stop offset="1" stop-color="#00C4BF"/></linearGradient><linearGradient id="paint1_linear_699_5101" x1="44.077" x2="44.077" y1="62.852" y2="21.217" gradientUnits="userSpaceOnUse"><stop stop-color="#00FECF"/><stop offset=".08" stop-color="#00E5D0"/><stop offset=".24" stop-color="#00A5D1"/><stop offset=".48" stop-color="#0040D4"/><stop offset=".54" stop-color="#0025D5"/><stop offset="1"/></linearGradient><linearGradient id="paint2_linear_699_5101" x1="37.441" x2="146.891" y1="76.859" y2="76.859" gradientUnits="userSpaceOnUse"><stop stop-color="#FDEC9F"/><stop offset=".08" stop-color="#E4D8A4"/><stop offset=".24" stop-color="#A4A6B2"/><stop offset=".47" stop-color="#3F57C8"/><stop offset=".61" stop-color="#0025D5"/><stop offset="1"/></linearGradient><linearGradient id="paint3_linear_699_5101" x1="15.06" x2="155.01" y1="103.18" y2="103.18" gradientUnits="userSpaceOnUse"><stop offset=".05" stop-color="#62A5FF"/><stop offset=".45" stop-color="#1032D1"/><stop offset="1"/></linearGradient><linearGradient id="paint4_linear_699_5101" x1="628.741" x2="797.782" y1="3244.93" y2="3247.12" gradientUnits="userSpaceOnUse"><stop stop-color="#FFD4B2"/><stop offset=".36" stop-color="#9ACEB7"/><stop offset=".67" stop-color="#47C8BB"/><stop offset=".89" stop-color="#14C5BE"/><stop offset="1" stop-color="#00C4BF"/></linearGradient><linearGradient id="paint5_linear_699_5101" x1="24.599" x2="72.583" y1="82.378" y2="82.378" gradientUnits="userSpaceOnUse"><stop stop-color="#00FECF"/><stop offset=".08" stop-color="#00E5D0"/><stop offset=".25" stop-color="#00A5D1"/><stop offset=".49" stop-color="#0040D4"/><stop offset=".56" stop-color="#0025D5"/></linearGradient><linearGradient id="paint6_linear_699_5101" x1="70.957" x2="189.069" y1="52.595" y2="50.458" gradientUnits="userSpaceOnUse"><stop stop-color="#00FECF"/><stop offset=".05" stop-color="#00E5D0"/><stop offset=".15" stop-color="#00A5D1"/><stop offset=".29" stop-color="#0040D4"/><stop offset=".33" stop-color="#0025D5"/></linearGradient><linearGradient id="paint7_linear_699_5101" x1="27.119" x2="173.642" y1="27.869" y2="27.869" gradientUnits="userSpaceOnUse"><stop stop-color="#FFD4AF"/><stop offset=".1" stop-color="#E6D5BA"/><stop offset=".31" stop-color="#A7D6D5"/><stop offset=".61" stop-color="#43D9FF"/><stop offset=".63" stop-color="#37B1D0"/><stop offset=".65" stop-color="#2B8CA5"/><stop offset=".67" stop-color="#216B7D"/><stop offset=".7" stop-color="#184E5B"/><stop offset=".72" stop-color="#10353F"/><stop offset=".75" stop-color="#0A2228"/><stop offset=".78" stop-color="#061316"/><stop offset=".82" stop-color="#020809"/><stop offset=".88" stop-color="#010202"/><stop offset="1"/></linearGradient></defs></svg>