<svg xmlns="http://www.w3.org/2000/svg" width="334" height="314" fill="none" viewBox="0 0 334 314"><g id="Group 469"><g id="Ellipse 35" filter="url(#filter0_f_4876_19555)"><circle cx="150.299" cy="133.992" r="38.992" fill="#6188E7"/></g><g id="Vector 24" filter="url(#filter1_f_4876_19555)"><path fill="#FF7AC3" d="M219.294 128.304C207.443 89.5841 160.418 158.07 159.788 161.097C150.878 152.941 130.085 135.922 118.184 133.097C103.307 129.566 108.098 186.069 121.209 195.529C134.321 204.988 178.825 200.952 201.518 205.114C224.211 209.276 231.145 167.025 219.294 128.304Z"/><path stroke="#FF7AC3" stroke-width=".276" d="M219.294 128.304C207.443 89.5841 160.418 158.07 159.788 161.097C150.878 152.941 130.085 135.922 118.184 133.097C103.307 129.566 108.098 186.069 121.209 195.529C134.321 204.988 178.825 200.952 201.518 205.114C224.211 209.276 231.145 167.025 219.294 128.304Z"/></g></g><defs><filter id="filter0_f_4876_19555" width="266.882" height="266.882" x="16.858" y=".551" color-interpolation-filters="sRGB" filterUnits="userSpaceOnUse"><feFlood flood-opacity="0" result="BackgroundImageFix"/><feBlend in="SourceGraphic" in2="BackgroundImageFix" mode="normal" result="shape"/><feGaussianBlur result="effect1_foregroundBlur_4876_19555" stdDeviation="47.224"/></filter><filter id="filter1_f_4876_19555" width="332.276" height="305.198" x=".862" y="8.339" color-interpolation-filters="sRGB" filterUnits="userSpaceOnUse"><feFlood flood-opacity="0" result="BackgroundImageFix"/><feBlend in="SourceGraphic" in2="BackgroundImageFix" mode="normal" result="shape"/><feGaussianBlur result="effect1_foregroundBlur_4876_19555" stdDeviation="54"/></filter></defs></svg>